<svg width="110" height="33" fill="none" xmlns="http://www.w3.org/2000/svg"><g clip-path="url('#clip0_1_840')"><path d="M106.086 33H3.853C1.73 33 0 31.244 0 29.095V3.9C0 1.749 1.729 0 3.853 0h102.233C108.21 0 110 1.749 110 3.899v25.196c0 2.15-1.79 3.905-3.914 3.905Z" fill="#A6A6A6"/><path d="M109.211 29.096c0 1.746-1.396 3.16-3.124 3.16H3.853c-1.726 0-3.128-1.414-3.128-3.16V3.898C.725 2.153 2.127.734 3.853.734h102.233c1.729 0 3.124 1.42 3.124 3.164l.001 25.198Z" fill="#000"/><path d="M24.549 16.322c-.024-2.66 2.15-3.953 2.25-4.013-1.232-1.817-3.14-2.066-3.81-2.085-1.603-.171-3.158.97-3.974.97-.833 0-2.09-.954-3.446-.926-1.743.027-3.374 1.05-4.27 2.637-1.845 3.236-.468 7.992 1.3 10.608.885 1.282 1.92 2.712 3.273 2.662 1.324-.055 1.819-.855 3.416-.855 1.584 0 2.048.855 3.428.823 1.421-.023 2.316-1.287 3.17-2.58 1.023-1.469 1.433-2.915 1.45-2.99-.034-.01-2.76-1.064-2.787-4.251ZM21.941 8.502c.713-.901 1.2-2.128 1.065-3.373-1.031.046-2.32.722-3.063 1.604-.656.777-1.243 2.05-1.091 3.249 1.157.087 2.346-.592 3.09-1.48ZM43.71 25.99h-1.85l-1.013-3.225h-3.524l-.965 3.225h-1.802l3.49-10.979h2.157l3.508 10.98Zm-3.169-4.578-.917-2.866c-.096-.293-.278-.983-.546-2.069h-.033a80.953 80.953 0 0 1-.515 2.069l-.9 2.866h2.911ZM52.688 21.935c0 1.346-.36 2.41-1.079 3.192-.643.695-1.443 1.042-2.397 1.042-1.03 0-1.77-.374-2.22-1.123h-.033v4.17h-1.737V20.68c0-.847-.022-1.715-.064-2.606h1.528l.097 1.254h.032c.58-.945 1.459-1.417 2.639-1.417.922 0 1.692.369 2.308 1.107.617.74.925 1.711.925 2.917Zm-1.77.064c0-.77-.171-1.406-.515-1.906-.376-.521-.88-.782-1.512-.782-.43 0-.819.145-1.166.432a2.005 2.005 0 0 0-.684 1.132c-.054.218-.08.396-.08.537v1.32c0 .576.174 1.061.522 1.458.35.397.802.595 1.36.595.654 0 1.163-.256 1.527-.766.365-.51.548-1.183.548-2.02ZM61.68 21.935c0 1.346-.359 2.41-1.078 3.192-.643.695-1.442 1.042-2.397 1.042-1.03 0-1.77-.374-2.22-1.123h-.032v4.17h-1.737V20.68c0-.847-.022-1.715-.064-2.606h1.527l.097 1.254h.033c.579-.945 1.458-1.417 2.638-1.417.922 0 1.692.369 2.31 1.107.615.74.924 1.711.924 2.917Zm-1.77.064c0-.77-.171-1.406-.515-1.906-.376-.521-.878-.782-1.511-.782-.43 0-.819.145-1.167.432a2.004 2.004 0 0 0-.683 1.132c-.053.218-.08.396-.08.537v1.32c0 .576.174 1.061.52 1.458.35.396.803.595 1.362.595.654 0 1.163-.256 1.527-.766.365-.51.548-1.183.548-2.02ZM71.735 22.912c0 .934-.32 1.693-.963 2.28-.706.641-1.69.961-2.953.961-1.167 0-2.103-.228-2.81-.684l.402-1.466c.763.467 1.6.701 2.511.701.654 0 1.164-.15 1.53-.448.364-.3.545-.7.545-1.2 0-.446-.15-.82-.45-1.125-.3-.305-.799-.588-1.496-.85-1.899-.716-2.847-1.766-2.847-3.147 0-.903.332-1.643.998-2.219.663-.576 1.548-.864 2.655-.864.986 0 1.806.174 2.46.521l-.434 1.434c-.611-.337-1.302-.505-2.075-.505-.611 0-1.089.153-1.431.456a1.31 1.31 0 0 0-.434.994c0 .434.165.793.498 1.075.289.261.814.543 1.577.848.933.38 1.618.825 2.059 1.334.44.509.658 1.145.658 1.904ZM77.48 19.394h-1.916v3.843c0 .978.338 1.466 1.014 1.466.31 0 .568-.027.772-.081l.048 1.335c-.343.13-.793.195-1.351.195-.686 0-1.223-.212-1.61-.635-.385-.424-.579-1.135-.579-2.134v-3.991h-1.14v-1.32h1.14v-1.45l1.706-.52v1.97h1.915v1.322ZM86.118 21.967c0 1.217-.343 2.216-1.03 2.997-.719.805-1.674 1.206-2.864 1.206-1.148 0-2.061-.386-2.742-1.156-.681-.77-1.022-1.744-1.022-2.916 0-1.227.35-2.232 1.054-3.013.701-.782 1.648-1.173 2.839-1.173 1.147 0 2.07.385 2.767 1.157.666.748.998 1.714.998 2.898Zm-1.802.057c0-.73-.154-1.356-.466-1.879-.364-.632-.885-.947-1.56-.947-.698 0-1.228.316-1.592.947-.313.523-.466 1.16-.466 1.912 0 .73.153 1.356.466 1.878.375.632.9.947 1.577.947.663 0 1.184-.322 1.56-.964.32-.532.481-1.165.481-1.894ZM91.765 19.62a2.987 2.987 0 0 0-.547-.048c-.611 0-1.084.233-1.416.701-.29.413-.435.934-.435 1.564v4.153h-1.736l.016-5.423c0-.913-.022-1.743-.065-2.492h1.513l.064 1.514h.048c.183-.52.472-.94.868-1.254a2.083 2.083 0 0 1 1.256-.424c.16 0 .305.012.434.032v1.677ZM99.534 21.658c0 .315-.02.58-.063.797h-5.212c.02.783.273 1.38.757 1.793.439.369 1.007.554 1.704.554.772 0 1.476-.125 2.109-.375l.272 1.221c-.74.327-1.613.49-2.621.49-1.213 0-2.164-.362-2.857-1.084-.69-.722-1.037-1.691-1.037-2.907 0-1.194.322-2.188.966-2.98.675-.847 1.587-1.27 2.734-1.27 1.127 0 1.98.423 2.56 1.27.458.671.688 1.503.688 2.49Zm-1.656-.457c.011-.521-.102-.971-.337-1.352-.301-.489-.763-.733-1.385-.733-.568 0-1.03.238-1.382.717-.29.38-.462.836-.515 1.368h3.619ZM39.967 8.257c0 .971-.288 1.702-.862 2.193-.532.453-1.289.68-2.268.68-.486 0-.901-.021-1.25-.064V5.76a9.105 9.105 0 0 1 1.472-.112c.933 0 1.636.205 2.11.616.531.465.798 1.129.798 1.993Zm-.9.024c0-.63-.165-1.112-.494-1.448-.33-.336-.81-.504-1.444-.504a3.57 3.57 0 0 0-.687.056v4.033c.105.017.297.024.577.024.653 0 1.158-.184 1.513-.552.355-.368.534-.904.534-1.609ZM44.74 9.105c0 .598-.168 1.088-.505 1.473-.354.395-.822.592-1.407.592-.564 0-1.013-.189-1.348-.568-.334-.379-.501-.856-.501-1.432 0-.603.172-1.097.517-1.48.346-.384.81-.576 1.395-.576.564 0 1.017.189 1.36.567.326.368.49.844.49 1.424Zm-.885.028c0-.359-.076-.666-.229-.923-.18-.31-.434-.465-.766-.465-.343 0-.604.155-.783.465-.153.257-.229.57-.229.939 0 .359.077.667.23.923.184.31.442.466.774.466.326 0 .582-.158.766-.474.158-.262.237-.572.237-.93ZM51.142 7.193l-1.202 3.89h-.782l-.498-1.69c-.126-.42-.229-.84-.309-1.256h-.015a9.286 9.286 0 0 1-.31 1.257l-.528 1.688h-.791l-1.13-3.889h.877l.434 1.85c.106.436.192.853.261 1.247h.016a14 14 0 0 1 .317-1.24l.545-1.856h.696l.522 1.817c.126.443.229.87.308 1.28h.024c.057-.4.145-.826.26-1.28l.466-1.817h.839ZM55.569 11.082h-.854V8.855c0-.687-.258-1.03-.774-1.03a.767.767 0 0 0-.617.283 1.012 1.012 0 0 0-.237.667v2.306h-.854V8.304c0-.341-.01-.712-.031-1.113h.75l.04.608h.024c.1-.189.248-.344.443-.47a1.43 1.43 0 0 1 .773-.218c.36 0 .657.117.894.353.295.288.443.717.443 1.288v2.33ZM57.923 11.082h-.853V5.41h.853v5.673ZM62.951 9.105c0 .598-.169 1.088-.506 1.473-.354.395-.823.592-1.407.592-.565 0-1.014-.189-1.348-.568-.334-.379-.501-.856-.501-1.432 0-.603.172-1.097.517-1.48.346-.384.81-.576 1.394-.576.565 0 1.017.189 1.361.567.326.368.49.844.49 1.424Zm-.887.028c0-.359-.076-.666-.228-.923-.179-.31-.435-.465-.766-.465-.343 0-.604.155-.783.465-.153.257-.229.57-.229.939 0 .359.077.667.23.923.184.31.442.466.774.466.326 0 .581-.158.765-.474.16-.262.237-.572.237-.93ZM67.084 11.082h-.767l-.063-.448h-.024c-.263.357-.636.536-1.122.536-.363 0-.656-.118-.877-.352-.2-.213-.3-.478-.3-.792 0-.475.195-.837.588-1.088.393-.251.946-.374 1.657-.368v-.073c0-.512-.266-.768-.798-.768a1.77 1.77 0 0 0-1.001.288l-.174-.567c.357-.224.798-.336 1.318-.336 1.004 0 1.507.536 1.507 1.609v1.432c0 .388.02.698.056.927Zm-.887-1.336v-.6c-.942-.017-1.413.245-1.413.783 0 .203.054.355.164.457.11.101.25.152.417.152.188 0 .363-.06.523-.18a.738.738 0 0 0 .31-.612ZM71.936 11.082h-.758l-.04-.624h-.023c-.242.475-.655.713-1.234.713-.463 0-.848-.184-1.154-.552-.305-.368-.458-.846-.458-1.433 0-.63.166-1.139.498-1.528a1.523 1.523 0 0 1 1.186-.545c.516 0 .876.176 1.082.528h.016V5.41h.855v4.625c0 .38.01.728.03 1.048Zm-.885-1.64v-.648a.986.986 0 0 0-.333-.796.833.833 0 0 0-.57-.212.873.873 0 0 0-.752.384c-.181.257-.274.584-.274.984 0 .385.088.696.263.937a.876.876 0 0 0 .746.383c.28 0 .504-.106.675-.32.164-.197.245-.435.245-.712ZM79.24 9.105c0 .598-.17 1.088-.507 1.473-.354.395-.821.592-1.407.592-.563 0-1.012-.189-1.348-.568-.334-.379-.5-.856-.5-1.432 0-.603.171-1.097.517-1.48.345-.384.81-.576 1.395-.576.563 0 1.017.189 1.36.567.325.368.49.844.49 1.424Zm-.886.028c0-.359-.076-.666-.229-.923-.18-.31-.434-.465-.766-.465-.343 0-.603.155-.783.465-.154.257-.23.57-.23.939 0 .359.077.667.23.923.184.31.442.466.774.466.326 0 .583-.158.767-.474.157-.262.237-.572.237-.93ZM83.83 11.082h-.852V8.855c0-.687-.258-1.03-.775-1.03a.764.764 0 0 0-.616.283 1.007 1.007 0 0 0-.237.667v2.306h-.855V8.304c0-.341-.01-.712-.03-1.113h.75l.04.608h.023c.1-.189.248-.344.442-.47.233-.144.49-.218.775-.218.358 0 .656.117.893.353.296.288.443.717.443 1.288v2.33ZM89.578 7.84h-.94v1.89c0 .48.166.72.497.72.153 0 .28-.013.38-.04l.023.656c-.17.064-.39.096-.664.096-.337 0-.6-.104-.79-.312-.19-.207-.284-.557-.284-1.048V7.84h-.562v-.648h.562V6.48l.836-.255v.967h.94v.649h.002ZM94.098 11.082h-.855v-2.21c0-.698-.257-1.047-.773-1.047-.396 0-.666.202-.815.606-.025.085-.04.19-.04.312v2.338h-.853V5.41h.853v2.344h.017c.268-.427.654-.64 1.153-.64.354 0 .647.117.879.352.289.293.434.729.434 1.305v2.312ZM98.761 8.954c0 .155-.011.285-.031.391h-2.561c.011.385.133.678.37.88.217.182.497.273.839.273.379 0 .724-.061 1.035-.184l.134.6c-.364.16-.793.24-1.289.24-.595 0-1.063-.177-1.402-.531-.34-.355-.51-.831-.51-1.428 0-.587.158-1.075.475-1.465.33-.416.778-.624 1.343-.624.552 0 .972.208 1.255.624.23.33.342.739.342 1.224Zm-.814-.224a1.176 1.176 0 0 0-.166-.664c-.148-.24-.374-.36-.68-.36a.808.808 0 0 0-.679.352c-.142.187-.226.41-.253.672h1.778Z" fill="#fff"/></g><defs><clipPath id="clip0_1_840"><path fill="#fff" d="M0 0h110v33H0z"/></clipPath></defs></svg>