<svg width="110" height="33" fill="none" xmlns="http://www.w3.org/2000/svg"><g clip-path="url('#clip0_1_872')"><path d="M105.926 33H4.074C1.793 33 0 31.185 0 28.875V4.125C0 1.815 1.793 0 4.074 0h101.852C108.207 0 110 1.815 110 4.125v24.75c0 2.31-1.793 4.125-4.074 4.125Z" fill="#000"/><path d="M105.926.66c1.874 0 3.422 1.567 3.422 3.465v24.75c0 1.898-1.548 3.465-3.422 3.465H4.074C2.2 32.34.652 30.772.652 28.875V4.125C.652 2.228 2.2.66 4.074.66h101.852Zm0-.66H4.074C1.793 0 0 1.897 0 4.125v24.75C0 31.185 1.793 33 4.074 33h101.852c2.281 0 4.074-1.815 4.074-4.125V4.125C110 1.897 108.207 0 105.926 0Z" fill="#A6A6A6"/><path d="M38.622 8.415c0 .66-.163 1.237-.57 1.65-.49.495-1.06.742-1.793.742-.733 0-1.303-.247-1.792-.742-.49-.495-.734-1.073-.734-1.815 0-.743.245-1.32.734-1.815.489-.495 1.059-.743 1.792-.743.326 0 .652.083.978.248.326.165.57.33.733.577l-.407.413c-.326-.413-.733-.578-1.304-.578-.489 0-.978.165-1.303.578-.408.33-.57.825-.57 1.402 0 .578.162 1.073.57 1.403.407.33.814.577 1.303.577.57 0 .978-.165 1.385-.577.245-.248.408-.578.408-.99h-1.793v-.66h2.363v.33ZM42.37 6.352h-2.2V7.92h2.037v.577H40.17v1.568h2.2v.66h-2.852v-4.95h2.852v.577ZM45.06 10.725h-.653V6.352h-1.385v-.577h3.422v.577H45.06v4.373ZM48.807 10.725v-4.95h.652v4.95h-.652ZM52.23 10.725h-.652V6.352h-1.386v-.577h3.341v.577h-1.385v4.373h.081ZM59.97 10.065c-.489.495-1.059.742-1.792.742-.734 0-1.304-.247-1.793-.742-.489-.495-.733-1.073-.733-1.815 0-.743.244-1.32.733-1.815.49-.495 1.06-.743 1.793-.743.733 0 1.303.248 1.792.743.49.495.734 1.072.734 1.815 0 .742-.245 1.32-.734 1.815Zm-3.096-.413c.326.33.815.578 1.304.578.489 0 .978-.165 1.303-.578.326-.33.57-.825.57-1.402 0-.578-.162-1.073-.57-1.403-.325-.33-.814-.577-1.303-.577-.49 0-.978.165-1.304.577-.326.33-.57.825-.57 1.403 0 .577.163 1.072.57 1.402ZM61.6 10.725v-4.95h.733l2.363 3.877V5.775h.652v4.95h-.652L62.17 6.682v4.043h-.57Z" fill="#fff" stroke="#fff" stroke-width=".2" stroke-miterlimit="10"/><path d="M55.489 17.985c-1.956 0-3.504 1.485-3.504 3.547 0 1.98 1.548 3.548 3.504 3.548 1.955 0 3.504-1.485 3.504-3.548 0-2.145-1.549-3.547-3.504-3.547Zm0 5.61c-1.06 0-1.956-.908-1.956-2.145 0-1.238.897-2.145 1.956-2.145 1.06 0 1.956.825 1.956 2.145 0 1.237-.897 2.145-1.956 2.145Zm-7.578-5.61c-1.955 0-3.504 1.485-3.504 3.547 0 1.98 1.549 3.548 3.504 3.548 1.956 0 3.504-1.485 3.504-3.548 0-2.145-1.548-3.547-3.504-3.547Zm0 5.61c-1.06 0-1.955-.908-1.955-2.145 0-1.238.896-2.145 1.955-2.145 1.06 0 1.956.825 1.956 2.145 0 1.237-.897 2.145-1.956 2.145Zm-9.044-4.538v1.485h3.503c-.081.825-.407 1.485-.814 1.898-.49.495-1.304 1.072-2.69 1.072-2.2 0-3.829-1.732-3.829-3.96 0-2.227 1.711-3.96 3.83-3.96 1.14 0 2.037.495 2.689 1.073l1.059-1.073c-.897-.825-2.037-1.485-3.667-1.485-2.933 0-5.46 2.475-5.46 5.445s2.527 5.445 5.46 5.445c1.63 0 2.77-.495 3.748-1.567.978-.99 1.304-2.393 1.304-3.465 0-.33 0-.66-.081-.908h-5.052Zm36.992 1.155c-.326-.825-1.14-2.227-2.933-2.227s-3.26 1.402-3.26 3.547c0 1.98 1.467 3.548 3.423 3.548 1.548 0 2.526-.99 2.852-1.568l-1.141-.825c-.407.578-.896.99-1.711.99-.815 0-1.304-.33-1.711-1.072l4.644-1.98-.163-.413Zm-4.726 1.155c0-1.32 1.06-2.062 1.793-2.062.57 0 1.14.33 1.304.742l-3.097 1.32Zm-3.83 3.383h1.549V14.437h-1.548V24.75Zm-2.444-6.023c-.407-.412-1.059-.825-1.874-.825-1.71 0-3.34 1.568-3.34 3.548s1.548 3.465 3.34 3.465c.815 0 1.467-.413 1.793-.825h.081v.495c0 1.32-.733 2.062-1.874 2.062-.896 0-1.548-.66-1.71-1.237l-1.305.577c.408.908 1.386 2.063 3.097 2.063 1.792 0 3.259-1.073 3.259-3.63v-6.27h-1.467v.577Zm-1.792 4.868c-1.06 0-1.956-.908-1.956-2.145 0-1.238.896-2.145 1.956-2.145 1.059 0 1.874.907 1.874 2.145 0 1.237-.815 2.145-1.874 2.145Zm19.881-9.158h-3.666V24.75h1.548v-3.878h2.118c1.711 0 3.34-1.237 3.34-3.217s-1.629-3.218-3.34-3.218Zm.082 4.95h-2.2V15.84h2.2c1.14 0 1.792.99 1.792 1.732-.081.908-.733 1.815-1.792 1.815Zm9.37-1.485c-1.14 0-2.282.495-2.689 1.568l1.385.577c.326-.577.815-.742 1.385-.742.815 0 1.549.495 1.63 1.32v.082c-.244-.165-.896-.412-1.548-.412-1.467 0-2.933.825-2.933 2.31 0 1.402 1.222 2.31 2.526 2.31 1.059 0 1.548-.495 1.955-.99h.082v.825h1.466v-3.96c-.163-1.815-1.548-2.888-3.259-2.888Zm-.163 5.693c-.489 0-1.222-.248-1.222-.908 0-.825.896-1.072 1.63-1.072.651 0 .977.165 1.385.33-.163.99-.978 1.65-1.793 1.65Zm8.556-5.445-1.712 4.455H99l-1.793-4.455h-1.63l2.69 6.27-1.548 3.465h1.548l4.155-9.735h-1.629Zm-13.69 6.6h1.549V14.437h-1.548V24.75Z" fill="#fff"/><path d="M8.474 6.188c-.244.247-.326.66-.326 1.155v18.232c0 .495.163.908.408 1.155l.081.082 10.104-10.23v-.164L8.474 6.188Z" fill="url('#paint0_linear_1_872')"/><path d="m22 20.048-3.34-3.383v-.247L22 13.035l.081.083 3.993 2.31c1.14.66 1.14 1.732 0 2.392L22 20.048Z" fill="url('#paint1_linear_1_872')"/><path d="M22.081 19.965 18.66 16.5 8.474 26.813c.408.412.978.412 1.711.082l11.896-6.93Z" fill="url('#paint2_linear_1_872')"/><path d="M22.081 13.035 10.185 6.188c-.733-.413-1.303-.33-1.71.082L18.658 16.5l3.422-3.465Z" fill="url('#paint3_linear_1_872')"/><path opacity=".2" d="m22 19.882-11.815 6.765c-.652.413-1.222.33-1.63 0l-.08.083.08.082c.408.33.978.413 1.63 0L22 19.882Z" fill="#000"/><path opacity=".12" d="M8.474 26.647c-.244-.247-.326-.66-.326-1.155v.083c0 .495.163.907.408 1.155v-.083h-.082ZM26.074 17.573 22 19.883l.081.082 3.993-2.31c.57-.33.815-.742.815-1.155 0 .413-.326.742-.815 1.073Z" fill="#000"/><path opacity=".25" d="m10.185 6.27 15.89 9.158c.488.33.814.66.814 1.072 0-.412-.244-.825-.815-1.155L10.185 6.188c-1.14-.66-2.037-.165-2.037 1.155v.082c0-1.237.896-1.815 2.037-1.155Z" fill="#fff"/></g><defs><linearGradient id="paint0_linear_1_872" x1="17.763" y1="7.186" x2="3.918" y2="20.859" gradientUnits="userSpaceOnUse"><stop stop-color="#00A0FF"/><stop offset=".007" stop-color="#00A1FF"/><stop offset=".26" stop-color="#00BEFF"/><stop offset=".512" stop-color="#00D2FF"/><stop offset=".76" stop-color="#00DFFF"/><stop offset="1" stop-color="#00E3FF"/></linearGradient><linearGradient id="paint1_linear_1_872" x1="27.569" y1="16.502" x2="7.853" y2="16.502" gradientUnits="userSpaceOnUse"><stop stop-color="#FFE000"/><stop offset=".409" stop-color="#FFBD00"/><stop offset=".775" stop-color="orange"/><stop offset="1" stop-color="#FF9C00"/></linearGradient><linearGradient id="paint2_linear_1_872" x1="20.229" y1="18.394" x2="1.455" y2="36.937" gradientUnits="userSpaceOnUse"><stop stop-color="#FF3A44"/><stop offset="1" stop-color="#C31162"/></linearGradient><linearGradient id="paint3_linear_1_872" x1="5.946" y1=".146" x2="14.329" y2="8.426" gradientUnits="userSpaceOnUse"><stop stop-color="#32A071"/><stop offset=".069" stop-color="#2DA771"/><stop offset=".476" stop-color="#15CF74"/><stop offset=".801" stop-color="#06E775"/><stop offset="1" stop-color="#00F076"/></linearGradient><clipPath id="clip0_1_872"><path fill="#fff" d="M0 0h110v33H0z"/></clipPath></defs></svg>