<svg width="30" height="30" fill="none" xmlns="http://www.w3.org/2000/svg"><g clip-path="url('#clip0_1_791')"><g clip-path="url('#clip1_1_791')"><path d="M26.25 30H3.75C1.65 30 0 28.35 0 26.25V3.75C0 1.65 1.65 0 3.75 0h22.5C28.35 0 30 1.65 30 3.75v22.5c0 2.1-1.65 3.75-3.75 3.75Z" fill="#007BB5"/><path d="M8.475 12.75h2.775v9H8.475v-9ZM9.9 8.25c.9 0 1.65.75 1.65 1.65 0 .9-.75 1.65-1.65 1.65-.9 0-1.65-.75-1.65-1.65 0-.9.75-1.65 1.65-1.65ZM13.05 12.75h2.7v1.2c.375-.675 1.275-1.425 2.625-1.425 2.85 0 3.375 1.875 3.375 4.275v4.95h-2.775V17.4c0-1.05 0-2.4-1.425-2.4s-1.65 1.125-1.65 2.325v4.425h-2.775v-9h-.075Z" fill="#fff"/></g><g clip-path="url('#clip2_1_791')"><path d="M26.25 30H3.75C1.65 30 0 28.35 0 26.25V3.75C0 1.65 1.65 0 3.75 0h22.5C28.35 0 30 1.65 30 3.75v22.5c0 2.1-1.65 3.75-3.75 3.75Z" fill="#007BB5"/><path d="M8.475 12.75h2.775v9H8.475v-9ZM9.9 8.25c.9 0 1.65.75 1.65 1.65 0 .9-.75 1.65-1.65 1.65-.9 0-1.65-.75-1.65-1.65 0-.9.75-1.65 1.65-1.65ZM13.05 12.75h2.7v1.2c.375-.675 1.275-1.425 2.625-1.425 2.85 0 3.375 1.875 3.375 4.275v4.95h-2.775V17.4c0-1.05 0-2.4-1.425-2.4s-1.65 1.125-1.65 2.325v4.425h-2.775v-9h-.075Z" fill="#fff"/></g></g><defs><clipPath id="clip0_1_791"><path fill="#fff" d="M0 0h30v30H0z"/></clipPath><clipPath id="clip1_1_791"><path fill="#fff" d="M0 0h30v30H0z"/></clipPath><clipPath id="clip2_1_791"><path fill="#fff" d="M0 0h30v30H0z"/></clipPath></defs></svg>