<svg aria-hidden="true" style="width:0;height:0;position:absolute;overflow:hidden" xmlns="http://www.w3.org/2000/svg"><defs><symbol id="icon-logo" viewBox="0 0 100 32"><path fill="#ee3524" style="fill:var(--color1,#ee3524)" d="M98.842 11.52c.449.507 1.158.053 1.158-.48V1.867c0-.533-.378-.96-.851-.96h-8.13c-.473 0-.898.773-.449 1.28l8.272 9.333z"/><path style="fill:var(--color2,#000)" d="M0 1.733c0-.4.284-.72.662-.72h3.593c.355 0 .662.32.662.72v8.907c0 .4.142.453.331.107l4.798-9.093c.189-.347.614-.64.993-.64h3.64c.354 0 .496.267.284.613L10.094 9.52c-.213.32-.26.907-.118 1.28l5.554 14.32c.142.373-.047.667-.402.667H11.37c-.355 0-.756-.293-.898-.667L6.998 15.04c-.118-.373-.402-.4-.614-.08l-1.111 1.787c-.213.32-.378.933-.378 1.333v6.96c0 .4-.307.72-.662.72H.664c-.355 0-.662-.32-.662-.72V1.733zm16.426 0c0-.4.307-.72.662-.72h3.285c.355 0 .662.32.662.72V25.04c0 .4-.307.72-.662.72h-3.285c-.355 0-.662-.32-.662-.72V1.733zM27.606 5.2c0 .4-.307.72-.662.72h-3.333c-.355 0-.662-.32-.662-.72V1.6c0-.4.307-.72.662-.72h3.333c.355 0 .662.32.662.72v3.6zm-4.633 2.987c0-.4.307-.72.662-.72h3.285c.355 0 .662.32.662.72v16.88c0 .4-.284.72-.662.72h-3.285c-.355 0-.662-.32-.662-.72V8.187zm6.571 0c0-.4.307-.72.662-.72h2.954c.355 0 .662.32.662.72v1.28c0 .4.307.453.402.16.355-.933 1.584-2.4 3.333-2.4 1.513 0 2.765.747 3.758 2.24s1.513 3.787 1.513 6.853c0 3.227-.496 5.653-1.465 7.28s-2.364 2.453-4.136 2.453c-1.276 0-2.316-.533-3.143-1.627v6.853c0 .4-.307.72-.662.72h-3.214c-.355 0-.662-.32-.662-.72V8.186zm4.538 9.333c0 .4.024 1.067.024 1.467 0 0 .095 2.16.355 2.693s.78.773 1.56.773c.685 0 1.205-.347 1.56-1.04.331-.693.496-2.4.496-5.093 0-2.24-.142-3.76-.449-4.56-.284-.8-.78-1.2-1.489-1.2-.567 0-1.064.24-1.465.747s-.615 1.653-.615 3.493l.024 2.72zM49.586 7.44v17.6c0 .4-.307.72-.662.72h-3.096c-.355 0-.662-.32-.662-.72l.024-18.32s.094-2.427.355-3.333c.236-.907.756-1.68 1.56-2.373.804-.667 1.891-1.013 3.262-1.013.591 0 1.182.053 1.749.16.355.053.591.32.591.693v2.613c0 .4-.284.693-.662.667h-.378c-.874 0-1.442.213-1.702.613-.26.427-.378 1.333-.378 2.693zm16.238 9.147c0 6.373-2.222 9.547-6.689 9.547s-6.712-3.173-6.712-9.547c0-6.347 2.245-9.52 6.712-9.52s6.689 3.173 6.689 9.52zm-4.751.026c0-2.347-.142-3.92-.425-4.747s-.804-1.227-1.513-1.227c-.685 0-1.205.4-1.489 1.173-.307.773-.449 2.373-.449 4.8 0 2.24.118 3.787.402 4.667.26.88.78 1.307 1.56 1.307.756 0 1.253-.427 1.536-1.307.236-.853.378-2.427.378-4.667zm6.287-14.88c0-.4.284-.72.662-.72h3.285c.355 0 .662.32.662.72V25.04c0 .4-.284.72-.662.72h-3.285c-.355 0-.662-.32-.662-.72V1.733zM78.563 5.2c0 .4-.307.72-.662.72h-3.356c-.355 0-.662-.32-.662-.72V1.6c0-.4.284-.72.662-.72h3.333c.355 0 .662.32.662.72l.024 3.6zM73.93 8.187c0-.4.284-.72.662-.72h3.285c.355 0 .662.32.662.72v16.88c0 .4-.307.72-.662.72h-3.285c-.355 0-.662-.32-.662-.72V8.187zm19.547 8.4c0 6.373-2.222 9.547-6.689 9.547s-6.712-3.173-6.712-9.547c0-6.347 2.245-9.52 6.712-9.52 4.443 0 6.689 3.173 6.689 9.52zm-4.751.026c0-2.347-.142-3.92-.425-4.747s-.78-1.227-1.513-1.227c-.685 0-1.205.4-1.513 1.173s-.449 2.373-.449 4.8c0 2.24.118 3.787.402 4.667.26.88.78 1.307 1.56 1.307.756 0 1.253-.427 1.536-1.307.26-.853.402-2.427.402-4.667z"/><path style="fill:var(--color2,#000)" d="M52.47 10.747c0 .4-.307.72-.662.72h-7.87c-.355 0-.662-.32-.662-.72v-2.56c0-.4.307-.72.662-.72h7.87c.355 0 .662.32.662.72v2.56z"/></symbol><symbol id="icon-dropdown" viewBox="0 0 48 32"><path d="M5.64 0 0 6.089 24 32 48 6.089 42.36 0 24 19.779 5.64 0z"/></symbol><symbol id="icon-arrow-Up" viewBox="0 0 55 32"><path d="M1.091 25.309 25.527.8c.291-.291.606-.496.945-.617.339-.122.703-.183 1.091-.183s.752.061 1.091.183c.339.12.655.326.946.617l24.509 24.509c.679.679 1.018 1.527 1.018 2.545s-.364 1.891-1.091 2.618c-.727.727-1.576 1.091-2.545 1.091s-1.818-.364-2.545-1.091L27.564 9.09 6.182 30.472c-.679.679-1.515 1.018-2.508 1.018-.995 0-1.856-.364-2.583-1.091S0 28.823 0 27.854c0-.97.364-1.818 1.091-2.545z"/></symbol></defs></svg>