<svg width="30" height="30" fill="none" xmlns="http://www.w3.org/2000/svg"><g clip-path="url('#clip0_1_769')"><g clip-path="url('#clip1_1_769')"><path d="M26.25 30H3.75C1.65 30 0 28.35 0 26.25V3.75C0 1.65 1.65 0 3.75 0h22.5C28.35 0 30 1.65 30 3.75v22.5c0 2.1-1.65 3.75-3.75 3.75Z" fill="#50ABF1"/><path d="M22.875 10.125c-.6.225-1.2.45-1.875.525.675-.375 1.2-1.05 1.425-1.8-.6.375-1.35.675-2.025.75-.6-.6-1.425-1.05-2.325-1.05a3.201 3.201 0 0 0-3.225 3.225c0 .225 0 .525.075.75-2.7-.15-5.1-1.425-6.675-3.375-.3.45-.45 1.05-.45 1.65 0 1.125.6 2.1 1.425 2.7-.525 0-1.05-.15-1.5-.375v.075c0 1.575 1.125 2.85 2.625 3.15-.3.075-.525.15-.825.15-.225 0-.375 0-.6-.075.375 1.275 1.575 2.25 3 2.25-1.125.9-2.475 1.35-4.05 1.35-.225 0-.525 0-.75-.075a9.31 9.31 0 0 0 4.95 1.425c5.925 0 9.225-4.95 9.225-9.225v-.45c.6-.375 1.125-.9 1.575-1.575Z" fill="#fff"/></g><g clip-path="url('#clip2_1_769')"><path d="M26.25 30H3.75C1.65 30 0 28.35 0 26.25V3.75C0 1.65 1.65 0 3.75 0h22.5C28.35 0 30 1.65 30 3.75v22.5c0 2.1-1.65 3.75-3.75 3.75Z" fill="#50ABF1"/><path d="M22.875 10.125c-.6.225-1.2.45-1.875.525.675-.375 1.2-1.05 1.425-1.8-.6.375-1.35.675-2.025.75-.6-.6-1.425-1.05-2.325-1.05a3.201 3.201 0 0 0-3.225 3.225c0 .225 0 .525.075.75-2.7-.15-5.1-1.425-6.675-3.375-.3.45-.45 1.05-.45 1.65 0 1.125.6 2.1 1.425 2.7-.525 0-1.05-.15-1.5-.375v.075c0 1.575 1.125 2.85 2.625 3.15-.3.075-.525.15-.825.15-.225 0-.375 0-.6-.075.375 1.275 1.575 2.25 3 2.25-1.125.9-2.475 1.35-4.05 1.35-.225 0-.525 0-.75-.075a9.31 9.31 0 0 0 4.95 1.425c5.925 0 9.225-4.95 9.225-9.225v-.45c.6-.375 1.125-.9 1.575-1.575Z" fill="#fff"/></g></g><defs><clipPath id="clip0_1_769"><path fill="#fff" d="M0 0h30v30H0z"/></clipPath><clipPath id="clip1_1_769"><path fill="#fff" d="M0 0h30v30H0z"/></clipPath><clipPath id="clip2_1_769"><path fill="#fff" d="M0 0h30v30H0z"/></clipPath></defs></svg>