<svg aria-hidden="true" style="position: absolute; width: 0; height: 0; overflow: hidden;" version="1.1"
    xmlns="http://www.w3.org/2000/svg" xmlns:xlink="http://www.w3.org/1999/xlink">
    <defs>
        <symbol id="icon-logo" viewBox="0 0 100 32">
            <path fill="#ee3524" style="fill: var(--color1, #ee3524)"
                d="M98.842 11.52c0.449 0.507 1.158 0.053 1.158-0.48v-9.173c0-0.533-0.378-0.96-0.851-0.96h-8.13c-0.473 0-0.898 0.773-0.449 1.28l8.272 9.333z">
            </path>
            <path fill="#000" style="fill: var(--color2, #000)"
                d="M0 1.733c0-0.4 0.284-0.72 0.662-0.72h3.593c0.355 0 0.662 0.32 0.662 0.72v8.907c0 0.4 0.142 0.453 0.331 0.107l4.798-9.093c0.189-0.347 0.614-0.64 0.993-0.64h3.64c0.354 0 0.496 0.267 0.284 0.613l-4.869 7.893c-0.213 0.32-0.26 0.907-0.118 1.28l5.554 14.32c0.142 0.373-0.047 0.667-0.402 0.667h-3.758c-0.355 0-0.756-0.293-0.898-0.667l-3.474-10.080c-0.118-0.373-0.402-0.4-0.614-0.080l-1.111 1.787c-0.213 0.32-0.378 0.933-0.378 1.333v6.96c0 0.4-0.307 0.72-0.662 0.72h-3.569c-0.355 0-0.662-0.32-0.662-0.72v-23.307zM16.426 1.733c0-0.4 0.307-0.72 0.662-0.72h3.285c0.355 0 0.662 0.32 0.662 0.72v23.307c0 0.4-0.307 0.72-0.662 0.72h-3.285c-0.355 0-0.662-0.32-0.662-0.72v-23.307zM27.606 5.2c0 0.4-0.307 0.72-0.662 0.72h-3.333c-0.355 0-0.662-0.32-0.662-0.72v-3.6c0-0.4 0.307-0.72 0.662-0.72h3.333c0.355 0 0.662 0.32 0.662 0.72v3.6zM22.973 8.187c0-0.4 0.307-0.72 0.662-0.72h3.285c0.355 0 0.662 0.32 0.662 0.72v16.88c0 0.4-0.284 0.72-0.662 0.72h-3.285c-0.355 0-0.662-0.32-0.662-0.72v-16.88zM29.544 8.187c0-0.4 0.307-0.72 0.662-0.72h2.954c0.355 0 0.662 0.32 0.662 0.72v1.28c0 0.4 0.307 0.453 0.402 0.16 0.355-0.933 1.584-2.4 3.333-2.4 1.513 0 2.765 0.747 3.758 2.24s1.513 3.787 1.513 6.853c0 3.227-0.496 5.653-1.465 7.28s-2.364 2.453-4.136 2.453c-1.276 0-2.316-0.533-3.143-1.627v6.853c0 0.4-0.307 0.72-0.662 0.72h-3.214c-0.355 0-0.662-0.32-0.662-0.72v-23.093zM34.082 17.52c0 0.4 0.024 1.067 0.024 1.467 0 0 0.095 2.16 0.355 2.693s0.78 0.773 1.56 0.773c0.685 0 1.205-0.347 1.56-1.040 0.331-0.693 0.496-2.4 0.496-5.093 0-2.24-0.142-3.76-0.449-4.56-0.284-0.8-0.78-1.2-1.489-1.2-0.567 0-1.064 0.24-1.465 0.747s-0.615 1.653-0.615 3.493l0.024 2.72zM49.586 7.44v17.6c0 0.4-0.307 0.72-0.662 0.72h-3.096c-0.355 0-0.662-0.32-0.662-0.72 0 0 0.024-17.92 0.024-18.32 0 0 0.094-2.427 0.355-3.333 0.236-0.907 0.756-1.68 1.56-2.373 0.804-0.667 1.891-1.013 3.262-1.013 0.591 0 1.182 0.053 1.749 0.16 0.355 0.053 0.591 0.32 0.591 0.693v2.613c0 0.4-0.284 0.693-0.662 0.667h-0.378c-0.874 0-1.442 0.213-1.702 0.613-0.26 0.427-0.378 1.333-0.378 2.693zM65.824 16.587c0 6.373-2.222 9.547-6.689 9.547s-6.712-3.173-6.712-9.547c0-6.347 2.245-9.52 6.712-9.52s6.689 3.173 6.689 9.52zM61.073 16.613c0-2.347-0.142-3.92-0.425-4.747s-0.804-1.227-1.513-1.227c-0.685 0-1.205 0.4-1.489 1.173-0.307 0.773-0.449 2.373-0.449 4.8 0 2.24 0.118 3.787 0.402 4.667 0.26 0.88 0.78 1.307 1.56 1.307 0.756 0 1.253-0.427 1.536-1.307 0.236-0.853 0.378-2.427 0.378-4.667zM67.36 1.733c0-0.4 0.284-0.72 0.662-0.72h3.285c0.355 0 0.662 0.32 0.662 0.72v23.307c0 0.4-0.284 0.72-0.662 0.72h-3.285c-0.355 0-0.662-0.32-0.662-0.72v-23.307zM78.563 5.2c0 0.4-0.307 0.72-0.662 0.72h-3.356c-0.355 0-0.662-0.32-0.662-0.72v-3.6c0-0.4 0.284-0.72 0.662-0.72h3.333c0.355 0 0.662 0.32 0.662 0.72l0.024 3.6zM73.93 8.187c0-0.4 0.284-0.72 0.662-0.72h3.285c0.355 0 0.662 0.32 0.662 0.72v16.88c0 0.4-0.307 0.72-0.662 0.72h-3.285c-0.355 0-0.662-0.32-0.662-0.72v-16.88zM93.477 16.587c0 6.373-2.222 9.547-6.689 9.547s-6.712-3.173-6.712-9.547c0-6.347 2.245-9.52 6.712-9.52 4.443 0 6.689 3.173 6.689 9.52zM88.726 16.613c0-2.347-0.142-3.92-0.425-4.747s-0.78-1.227-1.513-1.227c-0.685 0-1.205 0.4-1.513 1.173s-0.449 2.373-0.449 4.8c0 2.24 0.118 3.787 0.402 4.667 0.26 0.88 0.78 1.307 1.56 1.307 0.756 0 1.253-0.427 1.536-1.307 0.26-0.853 0.402-2.427 0.402-4.667z">
            </path>
            <path fill="#000" style="fill: var(--color2, #000)"
                d="M52.47 10.747c0 0.4-0.307 0.72-0.662 0.72h-7.87c-0.355 0-0.662-0.32-0.662-0.72v-2.56c0-0.4 0.307-0.72 0.662-0.72h7.87c0.355 0 0.662 0.32 0.662 0.72v2.56z">
            </path>
        </symbol>
    </defs>
</svg>